<svg xmlns="http://www.w3.org/2000/svg" xmlns:xlink="http://www.w3.org/1999/xlink" version="1.1" style="" xml:space="preserve" width="426.6669921875" height="426.6669921875"><rect id="backgroundrect" width="100%" height="100%" x="0" y="0" fill="none" stroke="none"/>
















<g class="currentLayer" style=""><title>Layer 1</title><g id="svg_2">
</g><g id="svg_3">
</g><g id="svg_4">
</g><g id="svg_5">
</g><g id="svg_6">
</g><g id="svg_7">
</g><g id="svg_8">
</g><g id="svg_9">
</g><g id="svg_10">
</g><g id="svg_11">
</g><g id="svg_12">
</g><g id="svg_13">
</g><g id="svg_14">
</g><g id="svg_15">
</g><g id="svg_16">
</g><rect fill="#ffffff" stroke-dashoffset="" fill-rule="nonzero" id="svg_17" x="85" y="79" width="261" height="261" style="color: rgb(0, 0, 0);" class="" rx="0" ry="0" filter=""/><path style="" d="M213.333,0C95.514,0,0,95.514,0,213.333s95.514,213.333,213.333,213.333  s213.333-95.514,213.333-213.333S331.153,0,213.333,0z M330.995,276.689l-54.302,54.306l-63.36-63.356l-63.36,63.36l-54.302-54.31  l63.356-63.356l-63.356-63.36l54.302-54.302l63.36,63.356l63.36-63.356l54.302,54.302l-63.356,63.36L330.995,276.689z" id="svg_1" class="" fill="#e84141" fill-opacity="1"/></g><defs><filter id="f001" xmlns:inkscape="http://www.inkscape.org/namespaces/inkscape" inkscape:label="Matte jelly" x="0" y="0" width="1" height="1" inkscape:menu="ABCs" inkscape:menu-tooltip="Bulging, matte jelly covering" color-interpolation-filters="sRGB">
            <feColorMatrix values="1 0 0 0 0 0 1 0 0 0 0 0 1 0 0 0 0 0 0.85 0" result="result0" in="SourceGraphic"/>
            <feGaussianBlur in="SourceAlpha" stdDeviation="7"/>
            <feSpecularLighting surfaceScale="5" specularConstant=".9" specularExponent="25">
                <feDistantLight elevation="60" azimuth="225"/>
            </feSpecularLighting>
            <feComposite operator="atop" in2="result0"/>
        </filter></defs></svg>